<?xml version="1.0" encoding="UTF-8"?>
<mxfile host="app.diagrams.net" agent="Mozilla/5.0 (X11; Linux x86_64) AppleWebKit/537.36 (KHTML, like Gecko) Chrome/141.0.0.0 Safari/537.36" version="28.2.7">
  <diagram name="Pagina-1" id="F2SKf_4MNK1uwhhh67Jk">
    <mxGraphModel dx="872" dy="487" grid="1" gridSize="10" guides="1" tooltips="1" connect="1" arrows="1" fold="1" page="1" pageScale="1" pageWidth="1169" pageHeight="827" math="0" shadow="0">
      <root>
        <mxCell id="0" />
        <mxCell id="1" parent="0" />
        <mxCell id="ll_94krIDBsMpJE83BhM-62" value="" style="group" parent="1" vertex="1" connectable="0">
          <mxGeometry x="50" y="79" width="1070" height="669" as="geometry" />
        </mxCell>
        <mxCell id="ll_94krIDBsMpJE83BhM-1" value="&lt;font style=&quot;font-size: 18px;&quot;&gt;CITTA&#39;&lt;/font&gt;" style="rounded=0;whiteSpace=wrap;html=1;" parent="ll_94krIDBsMpJE83BhM-62" vertex="1">
          <mxGeometry x="20.70967741935484" y="102.36065573770492" width="234.70967741935485" height="85.30054644808743" as="geometry" />
        </mxCell>
        <mxCell id="ll_94krIDBsMpJE83BhM-2" value="&lt;font style=&quot;font-size: 18px;&quot;&gt;TEATRO&lt;/font&gt;" style="rounded=0;whiteSpace=wrap;html=1;" parent="ll_94krIDBsMpJE83BhM-62" vertex="1">
          <mxGeometry x="780.0645161290323" y="102.36065573770492" width="248.51612903225808" height="85.30054644808743" as="geometry" />
        </mxCell>
        <mxCell id="ll_94krIDBsMpJE83BhM-3" value="&lt;font style=&quot;font-size: 18px;&quot;&gt;SPETTACOLO&lt;/font&gt;" style="rounded=0;whiteSpace=wrap;html=1;" parent="ll_94krIDBsMpJE83BhM-62" vertex="1">
          <mxGeometry x="793.8709677419355" y="480.1202185792349" width="234.70967741935485" height="97.4863387978142" as="geometry" />
        </mxCell>
        <mxCell id="ll_94krIDBsMpJE83BhM-4" value="&lt;font style=&quot;font-size: 18px;&quot;&gt;E&#39;_IN&lt;/font&gt;" style="rhombus;whiteSpace=wrap;html=1;" parent="ll_94krIDBsMpJE83BhM-62" vertex="1">
          <mxGeometry x="393.48387096774195" y="96.26775956284153" width="248.51612903225808" height="97.4863387978142" as="geometry" />
        </mxCell>
        <mxCell id="ll_94krIDBsMpJE83BhM-5" value="" style="endArrow=none;html=1;rounded=0;exitX=0;exitY=0.5;exitDx=0;exitDy=0;entryX=1;entryY=0.5;entryDx=0;entryDy=0;" parent="ll_94krIDBsMpJE83BhM-62" source="ll_94krIDBsMpJE83BhM-4" target="ll_94krIDBsMpJE83BhM-1" edge="1">
          <mxGeometry width="50" height="50" relative="1" as="geometry">
            <mxPoint x="517.741935483871" y="333.89071038251365" as="sourcePoint" />
            <mxPoint x="586.7741935483871" y="272.9617486338798" as="targetPoint" />
          </mxGeometry>
        </mxCell>
        <mxCell id="ll_94krIDBsMpJE83BhM-6" value="" style="endArrow=none;html=1;rounded=0;exitX=0;exitY=0.5;exitDx=0;exitDy=0;entryX=1;entryY=0.5;entryDx=0;entryDy=0;" parent="ll_94krIDBsMpJE83BhM-62" edge="1">
          <mxGeometry width="50" height="50" relative="1" as="geometry">
            <mxPoint x="780.0645161290323" y="144.71846994535517" as="sourcePoint" />
            <mxPoint x="642" y="144.71846994535517" as="targetPoint" />
          </mxGeometry>
        </mxCell>
        <mxCell id="ll_94krIDBsMpJE83BhM-7" value="&lt;font style=&quot;font-size: 18px;&quot;&gt;PROIETTA&lt;/font&gt;" style="rhombus;whiteSpace=wrap;html=1;" parent="ll_94krIDBsMpJE83BhM-62" vertex="1">
          <mxGeometry x="780.0645161290323" y="285.1475409836066" width="248.51612903225808" height="97.4863387978142" as="geometry" />
        </mxCell>
        <mxCell id="ll_94krIDBsMpJE83BhM-8" value="" style="endArrow=none;html=1;rounded=0;entryX=0.5;entryY=0;entryDx=0;entryDy=0;exitX=0.5;exitY=1;exitDx=0;exitDy=0;" parent="ll_94krIDBsMpJE83BhM-62" source="ll_94krIDBsMpJE83BhM-2" target="ll_94krIDBsMpJE83BhM-7" edge="1">
          <mxGeometry width="50" height="50" relative="1" as="geometry">
            <mxPoint x="490.1290322580645" y="370.448087431694" as="sourcePoint" />
            <mxPoint x="559.1612903225806" y="309.5191256830601" as="targetPoint" />
          </mxGeometry>
        </mxCell>
        <mxCell id="ll_94krIDBsMpJE83BhM-9" value="" style="endArrow=none;html=1;rounded=0;entryX=0.5;entryY=0;entryDx=0;entryDy=0;exitX=0.5;exitY=1;exitDx=0;exitDy=0;" parent="ll_94krIDBsMpJE83BhM-62" edge="1">
          <mxGeometry width="50" height="50" relative="1" as="geometry">
            <mxPoint x="903.7427096774195" y="382.6338797814208" as="sourcePoint" />
            <mxPoint x="903.7427096774195" y="480.1202185792349" as="targetPoint" />
          </mxGeometry>
        </mxCell>
        <mxCell id="ll_94krIDBsMpJE83BhM-12" value="" style="endArrow=none;html=1;rounded=0;exitX=0.061;exitY=0.008;exitDx=0;exitDy=0;exitPerimeter=0;" parent="ll_94krIDBsMpJE83BhM-62" edge="1">
          <mxGeometry width="50" height="50" relative="1" as="geometry">
            <mxPoint x="35.02696774193549" y="101.82448087431693" as="sourcePoint" />
            <mxPoint x="34.516129032258064" y="40.21311475409836" as="targetPoint" />
          </mxGeometry>
        </mxCell>
        <mxCell id="ll_94krIDBsMpJE83BhM-11" value="" style="ellipse;whiteSpace=wrap;html=1;" parent="ll_94krIDBsMpJE83BhM-62" vertex="1">
          <mxGeometry x="27.612903225806452" y="28.027322404371585" width="13.806451612903226" height="12.185792349726775" as="geometry" />
        </mxCell>
        <mxCell id="ll_94krIDBsMpJE83BhM-16" value="&lt;font style=&quot;font-size: 14px;&quot;&gt;nome&lt;/font&gt;" style="text;html=1;align=center;verticalAlign=middle;resizable=0;points=[];autosize=1;strokeColor=none;fillColor=none;" parent="ll_94krIDBsMpJE83BhM-62" vertex="1">
          <mxGeometry x="4.52" y="0.54" width="60" height="30" as="geometry" />
        </mxCell>
        <mxCell id="ll_94krIDBsMpJE83BhM-17" value="" style="endArrow=none;html=1;rounded=0;exitX=0.061;exitY=0.008;exitDx=0;exitDy=0;exitPerimeter=0;" parent="ll_94krIDBsMpJE83BhM-62" edge="1">
          <mxGeometry width="50" height="50" relative="1" as="geometry">
            <mxPoint x="104.05922580645162" y="102.36065573770492" as="sourcePoint" />
            <mxPoint x="103.5483870967742" y="40.74928961748633" as="targetPoint" />
          </mxGeometry>
        </mxCell>
        <mxCell id="ll_94krIDBsMpJE83BhM-18" value="" style="ellipse;whiteSpace=wrap;html=1;fillColor=#292929;" parent="ll_94krIDBsMpJE83BhM-62" vertex="1">
          <mxGeometry x="96.64516129032258" y="28.56349726775956" width="13.806451612903226" height="12.185792349726775" as="geometry" />
        </mxCell>
        <mxCell id="ll_94krIDBsMpJE83BhM-19" value="&lt;font style=&quot;font-size: 14px;&quot;&gt;cap&lt;/font&gt;" style="text;html=1;align=center;verticalAlign=middle;resizable=0;points=[];autosize=1;strokeColor=none;fillColor=none;" parent="ll_94krIDBsMpJE83BhM-62" vertex="1">
          <mxGeometry x="78.54548387096774" y="0.5361748633879754" width="50" height="30" as="geometry" />
        </mxCell>
        <mxCell id="ll_94krIDBsMpJE83BhM-20" value="" style="endArrow=none;html=1;rounded=0;exitX=0.061;exitY=0.008;exitDx=0;exitDy=0;exitPerimeter=0;" parent="ll_94krIDBsMpJE83BhM-62" edge="1">
          <mxGeometry width="50" height="50" relative="1" as="geometry">
            <mxPoint x="166.18825806451613" y="102.36065573770492" as="sourcePoint" />
            <mxPoint x="165.67741935483872" y="40.74928961748633" as="targetPoint" />
          </mxGeometry>
        </mxCell>
        <mxCell id="ll_94krIDBsMpJE83BhM-21" value="" style="ellipse;whiteSpace=wrap;html=1;" parent="ll_94krIDBsMpJE83BhM-62" vertex="1">
          <mxGeometry x="158.7741935483871" y="28.56349726775956" width="13.806451612903226" height="12.185792349726775" as="geometry" />
        </mxCell>
        <mxCell id="ll_94krIDBsMpJE83BhM-22" value="&lt;font style=&quot;font-size: 14px;&quot;&gt;comune&lt;/font&gt;" style="text;html=1;align=center;verticalAlign=middle;resizable=0;points=[];autosize=1;strokeColor=none;fillColor=none;" parent="ll_94krIDBsMpJE83BhM-62" vertex="1">
          <mxGeometry x="130.67483870967743" y="0.5361748633879754" width="70" height="30" as="geometry" />
        </mxCell>
        <mxCell id="ll_94krIDBsMpJE83BhM-23" value="" style="endArrow=none;html=1;rounded=0;exitX=0.061;exitY=0.008;exitDx=0;exitDy=0;exitPerimeter=0;" parent="ll_94krIDBsMpJE83BhM-62" edge="1">
          <mxGeometry width="50" height="50" relative="1" as="geometry">
            <mxPoint x="801.2850322580646" y="101.82448087431693" as="sourcePoint" />
            <mxPoint x="800.7741935483871" y="40.21311475409836" as="targetPoint" />
          </mxGeometry>
        </mxCell>
        <mxCell id="ll_94krIDBsMpJE83BhM-24" value="" style="ellipse;whiteSpace=wrap;html=1;" parent="ll_94krIDBsMpJE83BhM-62" vertex="1">
          <mxGeometry x="793.8709677419355" y="28.027322404371585" width="13.806451612903226" height="12.185792349726775" as="geometry" />
        </mxCell>
        <mxCell id="ll_94krIDBsMpJE83BhM-25" value="&lt;font style=&quot;font-size: 14px;&quot;&gt;capienza&lt;/font&gt;" style="text;html=1;align=center;verticalAlign=middle;resizable=0;points=[];autosize=1;strokeColor=none;fillColor=none;" parent="ll_94krIDBsMpJE83BhM-62" vertex="1">
          <mxGeometry x="760.7716129032259" y="0.54" width="80" height="30" as="geometry" />
        </mxCell>
        <mxCell id="ll_94krIDBsMpJE83BhM-26" value="" style="endArrow=none;html=1;rounded=0;exitX=0.061;exitY=0.008;exitDx=0;exitDy=0;exitPerimeter=0;" parent="ll_94krIDBsMpJE83BhM-62" edge="1">
          <mxGeometry width="50" height="50" relative="1" as="geometry">
            <mxPoint x="870.3172903225807" y="102.36065573770492" as="sourcePoint" />
            <mxPoint x="869.8064516129033" y="40.74928961748633" as="targetPoint" />
          </mxGeometry>
        </mxCell>
        <mxCell id="ll_94krIDBsMpJE83BhM-27" value="" style="ellipse;whiteSpace=wrap;html=1;" parent="ll_94krIDBsMpJE83BhM-62" vertex="1">
          <mxGeometry x="862.9032258064517" y="28.56349726775956" width="13.806451612903226" height="12.185792349726775" as="geometry" />
        </mxCell>
        <mxCell id="ll_94krIDBsMpJE83BhM-28" value="&lt;font style=&quot;font-size: 14px;&quot;&gt;nome&lt;/font&gt;" style="text;html=1;align=center;verticalAlign=middle;resizable=0;points=[];autosize=1;strokeColor=none;fillColor=none;" parent="ll_94krIDBsMpJE83BhM-62" vertex="1">
          <mxGeometry x="839.8103225806452" y="0.5361748633879754" width="60" height="30" as="geometry" />
        </mxCell>
        <mxCell id="ll_94krIDBsMpJE83BhM-29" value="" style="endArrow=none;html=1;rounded=0;exitX=0.061;exitY=0.008;exitDx=0;exitDy=0;exitPerimeter=0;" parent="ll_94krIDBsMpJE83BhM-62" edge="1">
          <mxGeometry width="50" height="50" relative="1" as="geometry">
            <mxPoint x="925.5430967741936" y="102.36065573770492" as="sourcePoint" />
            <mxPoint x="925.0322580645162" y="40.74928961748633" as="targetPoint" />
          </mxGeometry>
        </mxCell>
        <mxCell id="ll_94krIDBsMpJE83BhM-30" value="" style="ellipse;whiteSpace=wrap;html=1;" parent="ll_94krIDBsMpJE83BhM-62" vertex="1">
          <mxGeometry x="918.1290322580645" y="28.56349726775956" width="13.806451612903226" height="12.185792349726775" as="geometry" />
        </mxCell>
        <mxCell id="ll_94krIDBsMpJE83BhM-31" value="&lt;font style=&quot;font-size: 14px;&quot;&gt;n° sale&lt;/font&gt;" style="text;html=1;align=center;verticalAlign=middle;resizable=0;points=[];autosize=1;strokeColor=none;fillColor=none;" parent="ll_94krIDBsMpJE83BhM-62" vertex="1">
          <mxGeometry x="890.0329032258064" y="0.5361748633879754" width="70" height="30" as="geometry" />
        </mxCell>
        <mxCell id="ll_94krIDBsMpJE83BhM-32" value="" style="endArrow=none;html=1;rounded=0;exitX=0.061;exitY=0.008;exitDx=0;exitDy=0;exitPerimeter=0;" parent="ll_94krIDBsMpJE83BhM-62" edge="1">
          <mxGeometry width="50" height="50" relative="1" as="geometry">
            <mxPoint x="1022.1882580645162" y="102.36065573770492" as="sourcePoint" />
            <mxPoint x="1021.6774193548387" y="40.74928961748633" as="targetPoint" />
          </mxGeometry>
        </mxCell>
        <mxCell id="ll_94krIDBsMpJE83BhM-33" value="" style="ellipse;whiteSpace=wrap;html=1;" parent="ll_94krIDBsMpJE83BhM-62" vertex="1">
          <mxGeometry x="1014.7741935483871" y="28.56349726775956" width="13.806451612903226" height="12.185792349726775" as="geometry" />
        </mxCell>
        <mxCell id="ll_94krIDBsMpJE83BhM-34" value="&lt;font style=&quot;font-size: 14px;&quot;&gt;indirizzo&lt;/font&gt;" style="text;html=1;align=center;verticalAlign=middle;resizable=0;points=[];autosize=1;strokeColor=none;fillColor=none;" parent="ll_94krIDBsMpJE83BhM-62" vertex="1">
          <mxGeometry x="986.6748387096775" y="0.5361748633879754" width="70" height="30" as="geometry" />
        </mxCell>
        <mxCell id="ll_94krIDBsMpJE83BhM-37" value="" style="endArrow=none;html=1;rounded=0;exitX=0.061;exitY=0.008;exitDx=0;exitDy=0;exitPerimeter=0;" parent="ll_94krIDBsMpJE83BhM-62" edge="1">
          <mxGeometry width="50" height="50" relative="1" as="geometry">
            <mxPoint x="973.8656774193549" y="102.36065573770492" as="sourcePoint" />
            <mxPoint x="973.3548387096774" y="40.74928961748633" as="targetPoint" />
          </mxGeometry>
        </mxCell>
        <mxCell id="ll_94krIDBsMpJE83BhM-38" value="" style="ellipse;whiteSpace=wrap;html=1;fillColor=#0A0A0A;" parent="ll_94krIDBsMpJE83BhM-62" vertex="1">
          <mxGeometry x="966.4516129032259" y="28.56349726775956" width="13.806451612903226" height="12.185792349726775" as="geometry" />
        </mxCell>
        <mxCell id="ll_94krIDBsMpJE83BhM-39" value="&lt;font style=&quot;font-size: 14px;&quot;&gt;id&lt;/font&gt;" style="text;html=1;align=center;verticalAlign=middle;resizable=0;points=[];autosize=1;strokeColor=none;fillColor=none;" parent="ll_94krIDBsMpJE83BhM-62" vertex="1">
          <mxGeometry x="958.3551612903227" y="0.5361748633879754" width="30" height="30" as="geometry" />
        </mxCell>
        <mxCell id="ll_94krIDBsMpJE83BhM-41" value="" style="endArrow=none;html=1;rounded=0;entryX=0;entryY=0.5;entryDx=0;entryDy=0;" parent="ll_94krIDBsMpJE83BhM-62" target="ll_94krIDBsMpJE83BhM-7" edge="1">
          <mxGeometry width="50" height="50" relative="1" as="geometry">
            <mxPoint x="711.0322580645162" y="297.3333333333333" as="sourcePoint" />
            <mxPoint x="600.5806451612904" y="272.9617486338798" as="targetPoint" />
          </mxGeometry>
        </mxCell>
        <mxCell id="ll_94krIDBsMpJE83BhM-42" value="" style="endArrow=none;html=1;rounded=0;entryX=0;entryY=0.5;entryDx=0;entryDy=0;" parent="ll_94krIDBsMpJE83BhM-62" target="ll_94krIDBsMpJE83BhM-7" edge="1">
          <mxGeometry width="50" height="50" relative="1" as="geometry">
            <mxPoint x="711.0322580645162" y="370.448087431694" as="sourcePoint" />
            <mxPoint x="793.8709677419355" y="346.07650273224044" as="targetPoint" />
          </mxGeometry>
        </mxCell>
        <mxCell id="ll_94krIDBsMpJE83BhM-44" value="" style="ellipse;whiteSpace=wrap;html=1;" parent="ll_94krIDBsMpJE83BhM-62" vertex="1">
          <mxGeometry x="698.6064516129032" y="287.5846994535519" width="13.806451612903226" height="12.185792349726775" as="geometry" />
        </mxCell>
        <mxCell id="ll_94krIDBsMpJE83BhM-45" value="" style="ellipse;whiteSpace=wrap;html=1;" parent="ll_94krIDBsMpJE83BhM-62" vertex="1">
          <mxGeometry x="698.6064516129032" y="366.7923497267759" width="13.806451612903226" height="12.185792349726775" as="geometry" />
        </mxCell>
        <mxCell id="ll_94krIDBsMpJE83BhM-46" value="&lt;font style=&quot;font-size: 14px;&quot;&gt;data&lt;/font&gt;" style="text;html=1;align=center;verticalAlign=middle;resizable=0;points=[];autosize=1;strokeColor=none;fillColor=none;" parent="ll_94krIDBsMpJE83BhM-62" vertex="1">
          <mxGeometry x="648.6106451612903" y="278.6789071038251" width="50" height="30" as="geometry" />
        </mxCell>
        <mxCell id="ll_94krIDBsMpJE83BhM-47" value="&lt;font style=&quot;font-size: 14px;&quot;&gt;sala&lt;/font&gt;" style="text;html=1;align=center;verticalAlign=middle;resizable=0;points=[];autosize=1;strokeColor=none;fillColor=none;" parent="ll_94krIDBsMpJE83BhM-62" vertex="1">
          <mxGeometry x="650.0006451612903" y="357.88655737704914" width="50" height="30" as="geometry" />
        </mxCell>
        <mxCell id="ll_94krIDBsMpJE83BhM-48" value="" style="endArrow=none;html=1;rounded=0;exitX=0.015;exitY=1.003;exitDx=0;exitDy=0;exitPerimeter=0;" parent="ll_94krIDBsMpJE83BhM-62" source="ll_94krIDBsMpJE83BhM-3" edge="1">
          <mxGeometry width="50" height="50" relative="1" as="geometry">
            <mxPoint x="918.1290322580645" y="638.5355191256831" as="sourcePoint" />
            <mxPoint x="798.0129032258066" y="626.3497267759562" as="targetPoint" />
          </mxGeometry>
        </mxCell>
        <mxCell id="ll_94krIDBsMpJE83BhM-50" value="" style="ellipse;whiteSpace=wrap;html=1;fillColor=#000000;" parent="ll_94krIDBsMpJE83BhM-62" vertex="1">
          <mxGeometry x="791.109677419355" y="626.3497267759562" width="13.806451612903226" height="12.185792349726775" as="geometry" />
        </mxCell>
        <mxCell id="ll_94krIDBsMpJE83BhM-51" value="&lt;font style=&quot;font-size: 14px;&quot;&gt;id&lt;/font&gt;" style="text;html=1;align=center;verticalAlign=middle;resizable=0;points=[];autosize=1;strokeColor=none;fillColor=none;" parent="ll_94krIDBsMpJE83BhM-62" vertex="1">
          <mxGeometry x="783.0132258064516" y="632.4426229508197" width="30" height="30" as="geometry" />
        </mxCell>
        <mxCell id="ll_94krIDBsMpJE83BhM-52" value="" style="endArrow=none;html=1;rounded=0;exitX=0.015;exitY=1.003;exitDx=0;exitDy=0;exitPerimeter=0;" parent="ll_94krIDBsMpJE83BhM-62" edge="1">
          <mxGeometry width="50" height="50" relative="1" as="geometry">
            <mxPoint x="842.1935483870968" y="577.6065573770492" as="sourcePoint" />
            <mxPoint x="842.1935483870968" y="626.3497267759562" as="targetPoint" />
          </mxGeometry>
        </mxCell>
        <mxCell id="ll_94krIDBsMpJE83BhM-53" value="" style="ellipse;whiteSpace=wrap;html=1;" parent="ll_94krIDBsMpJE83BhM-62" vertex="1">
          <mxGeometry x="835.2903225806452" y="626.3497267759562" width="13.806451612903226" height="12.185792349726775" as="geometry" />
        </mxCell>
        <mxCell id="ll_94krIDBsMpJE83BhM-54" value="&lt;font style=&quot;font-size: 14px;&quot;&gt;tipo&lt;/font&gt;" style="text;html=1;align=center;verticalAlign=middle;resizable=0;points=[];autosize=1;strokeColor=none;fillColor=none;" parent="ll_94krIDBsMpJE83BhM-62" vertex="1">
          <mxGeometry x="817.1906451612903" y="632.4426229508197" width="50" height="30" as="geometry" />
        </mxCell>
        <mxCell id="ll_94krIDBsMpJE83BhM-55" value="" style="endArrow=none;html=1;rounded=0;exitX=0.015;exitY=1.003;exitDx=0;exitDy=0;exitPerimeter=0;" parent="ll_94krIDBsMpJE83BhM-62" edge="1">
          <mxGeometry width="50" height="50" relative="1" as="geometry">
            <mxPoint x="890.516129032258" y="577.6065573770492" as="sourcePoint" />
            <mxPoint x="890.516129032258" y="626.3497267759562" as="targetPoint" />
          </mxGeometry>
        </mxCell>
        <mxCell id="ll_94krIDBsMpJE83BhM-56" value="" style="ellipse;whiteSpace=wrap;html=1;" parent="ll_94krIDBsMpJE83BhM-62" vertex="1">
          <mxGeometry x="883.6129032258065" y="626.3497267759562" width="13.806451612903226" height="12.185792349726775" as="geometry" />
        </mxCell>
        <mxCell id="ll_94krIDBsMpJE83BhM-57" value="&lt;font style=&quot;font-size: 14px;&quot;&gt;prezzo&lt;/font&gt;" style="text;html=1;align=center;verticalAlign=middle;resizable=0;points=[];autosize=1;strokeColor=none;fillColor=none;" parent="ll_94krIDBsMpJE83BhM-62" vertex="1">
          <mxGeometry x="855.5167741935484" y="632.4426229508197" width="70" height="30" as="geometry" />
        </mxCell>
        <mxCell id="ll_94krIDBsMpJE83BhM-58" value="" style="endArrow=none;html=1;rounded=0;exitX=0.015;exitY=1.003;exitDx=0;exitDy=0;exitPerimeter=0;" parent="ll_94krIDBsMpJE83BhM-62" edge="1">
          <mxGeometry width="50" height="50" relative="1" as="geometry">
            <mxPoint x="945.741935483871" y="577.6065573770492" as="sourcePoint" />
            <mxPoint x="945.741935483871" y="626.3497267759562" as="targetPoint" />
          </mxGeometry>
        </mxCell>
        <mxCell id="ll_94krIDBsMpJE83BhM-59" value="" style="ellipse;whiteSpace=wrap;html=1;" parent="ll_94krIDBsMpJE83BhM-62" vertex="1">
          <mxGeometry x="938.8387096774194" y="626.3497267759562" width="13.806451612903226" height="12.185792349726775" as="geometry" />
        </mxCell>
        <mxCell id="ll_94krIDBsMpJE83BhM-60" value="&lt;font style=&quot;font-size: 14px;&quot;&gt;nome&lt;/font&gt;" style="text;html=1;align=center;verticalAlign=middle;resizable=0;points=[];autosize=1;strokeColor=none;fillColor=none;" parent="ll_94krIDBsMpJE83BhM-62" vertex="1">
          <mxGeometry x="915.7458064516129" y="632.4426229508197" width="60" height="30" as="geometry" />
        </mxCell>
        <mxCell id="ll_94krIDBsMpJE83BhM-63" value="&lt;font style=&quot;font-size: 18px;&quot;&gt;(1,N)&lt;/font&gt;" style="text;html=1;align=center;verticalAlign=middle;resizable=0;points=[];autosize=1;strokeColor=none;fillColor=none;" parent="ll_94krIDBsMpJE83BhM-62" vertex="1">
          <mxGeometry x="690" y="102.36000000000001" width="60" height="40" as="geometry" />
        </mxCell>
        <mxCell id="ll_94krIDBsMpJE83BhM-64" value="&lt;font style=&quot;font-size: 18px;&quot;&gt;(1,1)&lt;/font&gt;" style="text;html=1;align=center;verticalAlign=middle;resizable=0;points=[];autosize=1;strokeColor=none;fillColor=none;" parent="ll_94krIDBsMpJE83BhM-62" vertex="1">
          <mxGeometry x="270" y="102.36000000000001" width="60" height="40" as="geometry" />
        </mxCell>
        <mxCell id="ll_94krIDBsMpJE83BhM-65" value="&lt;font style=&quot;font-size: 18px;&quot;&gt;(1,N)&lt;/font&gt;" style="text;html=1;align=center;verticalAlign=middle;resizable=0;points=[];autosize=1;strokeColor=none;fillColor=none;" parent="ll_94krIDBsMpJE83BhM-62" vertex="1">
          <mxGeometry x="839.81" y="193.75" width="60" height="40" as="geometry" />
        </mxCell>
        <mxCell id="ll_94krIDBsMpJE83BhM-66" value="&lt;font style=&quot;font-size: 18px;&quot;&gt;(1,M)&lt;/font&gt;" style="text;html=1;align=center;verticalAlign=middle;resizable=0;points=[];autosize=1;strokeColor=none;fillColor=none;" parent="ll_94krIDBsMpJE83BhM-62" vertex="1">
          <mxGeometry x="835.77" y="431" width="70" height="40" as="geometry" />
        </mxCell>
      </root>
    </mxGraphModel>
  </diagram>
</mxfile>
